<svg width="125" height="125" viewBox="0 0 125 125" fill="none" xmlns="http://www.w3.org/2000/svg">
<path d="M63.878 0.000220038C42.1668 -0.0579194 23.0609 11.4101 12.1412 28.7356C11.6571 29.506 12.1981 30.5234 13.0951 30.5234H23.1036C23.787 30.5234 24.4276 30.2182 24.8547 29.6804C25.8513 28.4449 26.9191 27.2531 28.0438 26.1194C32.685 21.3955 38.0808 17.6746 44.0887 15.0874C50.296 12.413 56.9019 11.0467 63.7214 11.0467C70.5408 11.0467 77.1467 12.3985 83.354 15.0874C89.362 17.6746 94.7577 21.3955 99.3989 26.1194C104.04 30.8432 107.671 36.3519 110.219 42.4711C112.853 48.8083 114.177 55.5379 114.177 62.5001C114.177 69.4623 112.839 76.1919 110.219 82.5291C107.685 88.6483 104.04 94.157 99.3989 98.8809C94.7577 103.605 89.362 107.326 83.354 109.913C77.1418 112.592 70.4649 113.966 63.7214 113.954C56.9019 113.954 50.296 112.587 44.0887 109.913C38.0925 107.328 32.6437 103.582 28.0438 98.8809C26.9191 97.7326 25.8655 96.5407 24.8547 95.3198C24.4276 94.782 23.7727 94.4768 23.1036 94.4768H13.0951C12.1981 94.4768 11.6429 95.4942 12.1412 96.2646C23.0466 113.547 42.0671 125 63.7214 125C97.3488 125 124.655 97.3692 124.997 63.1396C125.339 28.3577 97.9895 0.0874292 63.878 0.000220038ZM45.8427 78.7792V67.7327H1.13895C0.512527 67.7327 0 67.2094 0 66.5699V58.4304C0 57.7908 0.512527 57.2676 1.13895 57.2676H45.8427V46.2211C45.8427 45.2472 46.9532 44.6949 47.6935 45.3054L67.8956 61.5844C68.0317 61.6932 68.1418 61.8322 68.2176 61.9908C68.2933 62.1495 68.3326 62.3236 68.3326 62.5001C68.3326 62.6766 68.2933 62.8508 68.2176 63.0094C68.1418 63.1681 68.0317 63.307 67.8956 63.4158L47.6935 79.6948C46.9532 80.2908 45.8427 79.753 45.8427 78.7792Z" fill="black"/>
</svg>
